<mxfile host="Electron" modified="2024-02-04T06:47:46.438Z" agent="Mozilla/5.0 (Windows NT 10.0; Win64; x64) AppleWebKit/537.36 (KHTML, like Gecko) draw.io/23.0.2 Chrome/120.0.6099.109 Electron/28.1.0 Safari/537.36" etag="hxXuh0dtgnDgn7wLSie4" version="23.0.2" type="device">
  <diagram name="ページ1" id="LE8fIzdrHe0wcv1LTvfw">
    <mxGraphModel dx="2474" dy="1480" grid="1" gridSize="10" guides="1" tooltips="1" connect="1" arrows="1" fold="1" page="1" pageScale="1" pageWidth="1600" pageHeight="1200" math="0" shadow="1">
      <root>
        <mxCell id="0" />
        <mxCell id="cFaB45KztUIKXS-_cTrr-4" value="背景" style="locked=1;" parent="0" visible="0" />
        <mxCell id="cFaB45KztUIKXS-_cTrr-5" value="" style="rounded=0;whiteSpace=wrap;html=1;strokeWidth=3;" parent="cFaB45KztUIKXS-_cTrr-4" vertex="1">
          <mxGeometry x="1" y="1" width="1595" height="1180" as="geometry" />
        </mxCell>
        <mxCell id="cFaB45KztUIKXS-_cTrr-6" value="" style="rounded=0;whiteSpace=wrap;html=1;fillColor=#B3B3B3;fontColor=#333333;strokeColor=#666666;" parent="cFaB45KztUIKXS-_cTrr-4" vertex="1">
          <mxGeometry width="1595" height="60" as="geometry" />
        </mxCell>
        <mxCell id="cFaB45KztUIKXS-_cTrr-7" value="&lt;font style=&quot;font-size: 48px;&quot;&gt;×&lt;/font&gt;" style="rounded=0;whiteSpace=wrap;html=1;" parent="cFaB45KztUIKXS-_cTrr-4" vertex="1">
          <mxGeometry x="1550" y="10" width="40" height="40" as="geometry" />
        </mxCell>
        <mxCell id="cFaB45KztUIKXS-_cTrr-8" value="" style="rounded=0;whiteSpace=wrap;html=1;" parent="cFaB45KztUIKXS-_cTrr-4" vertex="1">
          <mxGeometry x="830" y="670" width="120" height="60" as="geometry" />
        </mxCell>
        <mxCell id="cFaB45KztUIKXS-_cTrr-9" value="ウインドウ" style="locked=1;" parent="0" />
        <mxCell id="cFaB45KztUIKXS-_cTrr-10" value="" style="rounded=0;whiteSpace=wrap;html=1;strokeWidth=3;" parent="cFaB45KztUIKXS-_cTrr-9" vertex="1">
          <mxGeometry x="1" y="1" width="1595" height="1499" as="geometry" />
        </mxCell>
        <mxCell id="cFaB45KztUIKXS-_cTrr-11" value="" style="rounded=0;whiteSpace=wrap;html=1;fillColor=#B3B3B3;fontColor=#333333;strokeColor=#666666;" parent="cFaB45KztUIKXS-_cTrr-9" vertex="1">
          <mxGeometry width="1595" height="60" as="geometry" />
        </mxCell>
        <mxCell id="cFaB45KztUIKXS-_cTrr-12" value="&lt;font style=&quot;font-size: 48px;&quot;&gt;×&lt;/font&gt;" style="rounded=0;whiteSpace=wrap;html=1;" parent="cFaB45KztUIKXS-_cTrr-9" vertex="1">
          <mxGeometry x="1550" y="10" width="40" height="40" as="geometry" />
        </mxCell>
        <mxCell id="cFaB45KztUIKXS-_cTrr-14" value="画面" style="" parent="0" />
        <mxCell id="bkQitDRXs5g6DSLi2g_j-0" value="&lt;font style=&quot;font-size: 30px;&quot;&gt;書証を参照&lt;/font&gt;" style="rounded=1;whiteSpace=wrap;html=1;" parent="cFaB45KztUIKXS-_cTrr-14" vertex="1">
          <mxGeometry x="1158" y="431" width="210" height="60" as="geometry" />
        </mxCell>
        <mxCell id="bkQitDRXs5g6DSLi2g_j-1" value="&lt;div style=&quot;&quot;&gt;&lt;span style=&quot;background-color: initial;&quot;&gt;&lt;font style=&quot;font-size: 30px;&quot;&gt;123,456&lt;/font&gt;&lt;/span&gt;&lt;/div&gt;" style="rounded=0;whiteSpace=wrap;html=1;align=right;fillColor=#CCCCCC;" parent="cFaB45KztUIKXS-_cTrr-14" vertex="1">
          <mxGeometry x="371" y="507" width="220" height="48" as="geometry" />
        </mxCell>
        <mxCell id="bkQitDRXs5g6DSLi2g_j-2" value="&lt;div style=&quot;&quot;&gt;&lt;span style=&quot;background-color: initial;&quot;&gt;&lt;font style=&quot;font-size: 30px;&quot;&gt;*金額&lt;/font&gt;&lt;/span&gt;&lt;/div&gt;" style="rounded=0;whiteSpace=wrap;html=1;align=right;dashed=1;dashPattern=8 8;verticalAlign=bottom;" parent="cFaB45KztUIKXS-_cTrr-14" vertex="1">
          <mxGeometry x="70" y="504" width="230" height="48" as="geometry" />
        </mxCell>
        <mxCell id="bkQitDRXs5g6DSLi2g_j-4" value="&lt;div style=&quot;&quot;&gt;&lt;font style=&quot;font-size: 30px;&quot;&gt;*収支報告&lt;/font&gt;&lt;/div&gt;" style="rounded=0;whiteSpace=wrap;html=1;align=right;dashed=1;dashPattern=8 8;verticalAlign=bottom;" parent="cFaB45KztUIKXS-_cTrr-14" vertex="1">
          <mxGeometry x="73" y="368" width="230" height="46" as="geometry" />
        </mxCell>
        <mxCell id="bkQitDRXs5g6DSLi2g_j-5" value="&lt;div style=&quot;&quot;&gt;&lt;span style=&quot;background-color: initial;&quot;&gt;&lt;font style=&quot;font-size: 30px;&quot;&gt;思想団体A&lt;/font&gt;&lt;/span&gt;&lt;/div&gt;" style="rounded=0;whiteSpace=wrap;html=1;align=left;fillColor=#CCCCCC;" parent="cFaB45KztUIKXS-_cTrr-14" vertex="1">
          <mxGeometry x="371" y="717" width="220" height="48" as="geometry" />
        </mxCell>
        <mxCell id="bkQitDRXs5g6DSLi2g_j-6" value="&lt;div style=&quot;font-size: 30px;&quot;&gt;&lt;span style=&quot;background-color: initial;&quot;&gt;*氏名・&lt;/span&gt;&lt;span style=&quot;background-color: initial;&quot;&gt;団体名&lt;/span&gt;&lt;/div&gt;" style="rounded=0;whiteSpace=wrap;html=1;align=right;dashed=1;dashPattern=8 8;verticalAlign=bottom;" parent="cFaB45KztUIKXS-_cTrr-14" vertex="1">
          <mxGeometry x="70" y="717" width="230" height="48" as="geometry" />
        </mxCell>
        <mxCell id="bkQitDRXs5g6DSLi2g_j-8" value="&lt;div style=&quot;&quot;&gt;&lt;span style=&quot;font-size: 36px;&quot;&gt;このデータは&lt;/span&gt;&lt;/div&gt;" style="rounded=0;whiteSpace=wrap;html=1;align=left;dashed=1;dashPattern=8 8;" parent="cFaB45KztUIKXS-_cTrr-14" vertex="1">
          <mxGeometry x="71" y="142" width="230" height="70" as="geometry" />
        </mxCell>
        <mxCell id="bkQitDRXs5g6DSLi2g_j-9" value="&lt;font style=&quot;font-size: 60px;&quot; color=&quot;#cc0000&quot;&gt;&lt;b&gt;収入&lt;/b&gt;&lt;/font&gt;" style="rounded=0;whiteSpace=wrap;html=1;align=center;verticalAlign=middle;" parent="cFaB45KztUIKXS-_cTrr-14" vertex="1">
          <mxGeometry x="376" y="133.5" width="220" height="85" as="geometry" />
        </mxCell>
        <mxCell id="bkQitDRXs5g6DSLi2g_j-10" value="&lt;div style=&quot;&quot;&gt;&lt;span style=&quot;font-size: 36px;&quot;&gt;です(この&lt;u&gt;団体に入金&lt;/u&gt;)&lt;/span&gt;&lt;/div&gt;" style="rounded=0;whiteSpace=wrap;html=1;align=left;dashed=1;dashPattern=8 8;" parent="cFaB45KztUIKXS-_cTrr-14" vertex="1">
          <mxGeometry x="606" y="148" width="377" height="70" as="geometry" />
        </mxCell>
        <mxCell id="bkQitDRXs5g6DSLi2g_j-16" value="&lt;font style=&quot;font-size: 30px;&quot;&gt;*書証タイプ&lt;/font&gt;" style="rounded=0;whiteSpace=wrap;html=1;align=right;dashed=1;dashPattern=8 8;verticalAlign=bottom;" parent="cFaB45KztUIKXS-_cTrr-14" vertex="1">
          <mxGeometry x="71" y="308" width="230" height="46" as="geometry" />
        </mxCell>
        <mxCell id="bkQitDRXs5g6DSLi2g_j-17" value="&lt;div style=&quot;&quot;&gt;&lt;font style=&quot;font-size: 30px;&quot;&gt;▼ 口座振込&lt;/font&gt;&lt;/div&gt;" style="rounded=0;whiteSpace=wrap;html=1;align=left;fillColor=#CCCCCC;" parent="cFaB45KztUIKXS-_cTrr-14" vertex="1">
          <mxGeometry x="376" y="311" width="220" height="48" as="geometry" />
        </mxCell>
        <mxCell id="bkQitDRXs5g6DSLi2g_j-18" value="&lt;div style=&quot;&quot;&gt;&lt;span style=&quot;background-color: initial;&quot;&gt;&lt;font style=&quot;font-size: 30px;&quot;&gt;収支 花子&lt;/font&gt;&lt;/span&gt;&lt;/div&gt;" style="rounded=0;whiteSpace=wrap;html=1;align=left;fillColor=#CCCCCC;" parent="cFaB45KztUIKXS-_cTrr-14" vertex="1">
          <mxGeometry x="369" y="792" width="220" height="48" as="geometry" />
        </mxCell>
        <mxCell id="bkQitDRXs5g6DSLi2g_j-19" value="&lt;div style=&quot;&quot;&gt;&lt;span style=&quot;background-color: initial;&quot;&gt;&lt;font style=&quot;font-size: 30px;&quot;&gt;*代表者氏名&lt;/font&gt;&lt;/span&gt;&lt;/div&gt;" style="rounded=0;whiteSpace=wrap;html=1;align=right;dashed=1;dashPattern=8 8;verticalAlign=bottom;" parent="cFaB45KztUIKXS-_cTrr-14" vertex="1">
          <mxGeometry x="70" y="793" width="230" height="48" as="geometry" />
        </mxCell>
        <mxCell id="bkQitDRXs5g6DSLi2g_j-20" value="&lt;div style=&quot;&quot;&gt;&lt;span style=&quot;background-color: initial;&quot;&gt;&lt;font style=&quot;font-size: 30px;&quot;&gt;東京都千代田区霞が関&lt;/font&gt;&lt;/span&gt;&lt;/div&gt;" style="rounded=0;whiteSpace=wrap;html=1;align=left;verticalAlign=top;fillColor=#CCCCCC;" parent="cFaB45KztUIKXS-_cTrr-14" vertex="1">
          <mxGeometry x="367" y="867" width="343" height="144" as="geometry" />
        </mxCell>
        <mxCell id="bkQitDRXs5g6DSLi2g_j-21" value="&lt;div style=&quot;&quot;&gt;&lt;font style=&quot;font-size: 30px;&quot;&gt;*代表者住所&lt;/font&gt;&lt;/div&gt;" style="rounded=0;whiteSpace=wrap;html=1;align=right;dashed=1;dashPattern=8 8;verticalAlign=bottom;" parent="cFaB45KztUIKXS-_cTrr-14" vertex="1">
          <mxGeometry x="70" y="864" width="230" height="48" as="geometry" />
        </mxCell>
        <mxCell id="bkQitDRXs5g6DSLi2g_j-22" value="&lt;font style=&quot;font-size: 84px;&quot;&gt;○&lt;/font&gt;" style="text;html=1;strokeColor=none;fillColor=none;align=center;verticalAlign=middle;whiteSpace=wrap;rounded=0;fontSize=60;" parent="cFaB45KztUIKXS-_cTrr-14" vertex="1">
          <mxGeometry x="370" y="377" width="60" height="30" as="geometry" />
        </mxCell>
        <mxCell id="bkQitDRXs5g6DSLi2g_j-23" value="&lt;font style=&quot;font-size: 48px;&quot;&gt;●&lt;/font&gt;" style="text;html=1;strokeColor=none;fillColor=none;align=center;verticalAlign=middle;whiteSpace=wrap;rounded=0;fontSize=48;" parent="cFaB45KztUIKXS-_cTrr-14" vertex="1">
          <mxGeometry x="370" y="379" width="60" height="30" as="geometry" />
        </mxCell>
        <mxCell id="bkQitDRXs5g6DSLi2g_j-24" value="&lt;font style=&quot;font-size: 30px;&quot;&gt;報告対象&lt;/font&gt;" style="text;html=1;strokeColor=none;fillColor=none;align=left;verticalAlign=middle;whiteSpace=wrap;rounded=0;" parent="cFaB45KztUIKXS-_cTrr-14" vertex="1">
          <mxGeometry x="425" y="366" width="275" height="60" as="geometry" />
        </mxCell>
        <mxCell id="bkQitDRXs5g6DSLi2g_j-25" value="&lt;font style=&quot;font-size: 84px;&quot;&gt;○&lt;/font&gt;" style="text;html=1;strokeColor=none;fillColor=none;align=center;verticalAlign=middle;whiteSpace=wrap;rounded=0;fontSize=60;" parent="cFaB45KztUIKXS-_cTrr-14" vertex="1">
          <mxGeometry x="600" y="377" width="60" height="30" as="geometry" />
        </mxCell>
        <mxCell id="bkQitDRXs5g6DSLi2g_j-27" value="&lt;font style=&quot;font-size: 30px;&quot;&gt;生活費(報告対象外)&lt;/font&gt;" style="text;html=1;strokeColor=none;fillColor=none;align=left;verticalAlign=middle;whiteSpace=wrap;rounded=0;" parent="cFaB45KztUIKXS-_cTrr-14" vertex="1">
          <mxGeometry x="656" y="367" width="275" height="60" as="geometry" />
        </mxCell>
        <mxCell id="bkQitDRXs5g6DSLi2g_j-28" value="&lt;font style=&quot;font-size: 30px;&quot;&gt;*仕訳項目&lt;/font&gt;" style="rounded=0;whiteSpace=wrap;html=1;align=right;dashed=1;dashPattern=8 8;verticalAlign=bottom;" parent="cFaB45KztUIKXS-_cTrr-14" vertex="1">
          <mxGeometry x="71" y="432" width="230" height="46" as="geometry" />
        </mxCell>
        <mxCell id="bkQitDRXs5g6DSLi2g_j-29" value="&lt;div style=&quot;&quot;&gt;&lt;font style=&quot;font-size: 30px;&quot;&gt;▼ (8)寄付(あっせん)&lt;/font&gt;&lt;/div&gt;" style="rounded=0;whiteSpace=wrap;html=1;align=left;" parent="cFaB45KztUIKXS-_cTrr-14" vertex="1">
          <mxGeometry x="373" y="438" width="347" height="48" as="geometry" />
        </mxCell>
        <mxCell id="bkQitDRXs5g6DSLi2g_j-30" value="&lt;div style=&quot;&quot;&gt;&lt;font style=&quot;font-size: 30px;&quot;&gt;▼ 3.政治団体&lt;/font&gt;&lt;/div&gt;" style="rounded=0;whiteSpace=wrap;html=1;align=left;" parent="cFaB45KztUIKXS-_cTrr-14" vertex="1">
          <mxGeometry x="768" y="438" width="346" height="48" as="geometry" />
        </mxCell>
        <mxCell id="bkQitDRXs5g6DSLi2g_j-32" value="&lt;div style=&quot;&quot;&gt;&lt;span style=&quot;background-color: initial;&quot;&gt;&lt;font style=&quot;font-size: 30px;&quot;&gt;2022-12-01&lt;/font&gt;&lt;/span&gt;&lt;/div&gt;" style="rounded=0;whiteSpace=wrap;html=1;align=left;fillColor=#CCCCCC;" parent="cFaB45KztUIKXS-_cTrr-14" vertex="1">
          <mxGeometry x="371" y="577" width="220" height="41" as="geometry" />
        </mxCell>
        <mxCell id="bkQitDRXs5g6DSLi2g_j-33" value="&lt;div style=&quot;&quot;&gt;&lt;font style=&quot;font-size: 30px;&quot;&gt;*発生年月日&lt;/font&gt;&lt;/div&gt;" style="rounded=0;whiteSpace=wrap;html=1;align=right;dashed=1;dashPattern=8 8;verticalAlign=bottom;" parent="cFaB45KztUIKXS-_cTrr-14" vertex="1">
          <mxGeometry x="68" y="574" width="230" height="48" as="geometry" />
        </mxCell>
        <mxCell id="bkQitDRXs5g6DSLi2g_j-34" value="&lt;div style=&quot;&quot;&gt;&lt;br&gt;&lt;/div&gt;" style="rounded=0;whiteSpace=wrap;html=1;align=left;verticalAlign=top;fillColor=#CCCCCC;" parent="cFaB45KztUIKXS-_cTrr-14" vertex="1">
          <mxGeometry x="370" y="1031" width="340" height="48" as="geometry" />
        </mxCell>
        <mxCell id="bkQitDRXs5g6DSLi2g_j-35" value="&lt;font style=&quot;font-size: 30px;&quot;&gt;*備考&lt;/font&gt;" style="rounded=0;whiteSpace=wrap;html=1;align=right;dashed=1;dashPattern=8 8;verticalAlign=bottom;" parent="cFaB45KztUIKXS-_cTrr-14" vertex="1">
          <mxGeometry x="70" y="1028" width="230" height="48" as="geometry" />
        </mxCell>
        <mxCell id="bkQitDRXs5g6DSLi2g_j-36" value="&lt;font style=&quot;font-size: 30px;&quot;&gt;☑遺贈&lt;/font&gt;" style="text;html=1;strokeColor=none;fillColor=none;align=left;verticalAlign=middle;whiteSpace=wrap;rounded=0;" parent="cFaB45KztUIKXS-_cTrr-14" vertex="1">
          <mxGeometry x="738" y="1045" width="180" height="30" as="geometry" />
        </mxCell>
        <mxCell id="bkQitDRXs5g6DSLi2g_j-38" value="&lt;div style=&quot;&quot;&gt;&lt;span style=&quot;font-size: 30px;&quot;&gt;*集めた期間&lt;/span&gt;&lt;/div&gt;" style="rounded=0;whiteSpace=wrap;html=1;align=right;dashed=1;dashPattern=8 8;verticalAlign=bottom;" parent="cFaB45KztUIKXS-_cTrr-14" vertex="1">
          <mxGeometry x="64" y="644" width="230" height="48" as="geometry" />
        </mxCell>
        <mxCell id="bkQitDRXs5g6DSLi2g_j-39" value="&lt;div style=&quot;&quot;&gt;&lt;span style=&quot;background-color: initial;&quot;&gt;&lt;font style=&quot;font-size: 30px;&quot;&gt;2012-10-01&lt;/font&gt;&lt;/span&gt;&lt;/div&gt;" style="rounded=0;whiteSpace=wrap;html=1;align=left;fillColor=#CCCCCC;" parent="cFaB45KztUIKXS-_cTrr-14" vertex="1">
          <mxGeometry x="371" y="647" width="220" height="48" as="geometry" />
        </mxCell>
        <mxCell id="bkQitDRXs5g6DSLi2g_j-40" value="&lt;div style=&quot;&quot;&gt;&lt;span style=&quot;background-color: initial;&quot;&gt;&lt;font style=&quot;font-size: 30px;&quot;&gt;2012-11-15&lt;/font&gt;&lt;/span&gt;&lt;/div&gt;" style="rounded=0;whiteSpace=wrap;html=1;align=left;fillColor=#CCCCCC;" parent="cFaB45KztUIKXS-_cTrr-14" vertex="1">
          <mxGeometry x="761" y="647" width="220" height="48" as="geometry" />
        </mxCell>
        <mxCell id="bkQitDRXs5g6DSLi2g_j-42" value="&lt;span style=&quot;font-size: 24px;&quot;&gt;Calendar&lt;/span&gt;" style="rounded=1;whiteSpace=wrap;html=1;fillColor=#CCCCCC;" parent="cFaB45KztUIKXS-_cTrr-14" vertex="1">
          <mxGeometry x="604" y="646" width="120" height="48" as="geometry" />
        </mxCell>
        <mxCell id="bkQitDRXs5g6DSLi2g_j-43" value="&lt;span style=&quot;font-size: 24px;&quot;&gt;Calendar&lt;/span&gt;" style="rounded=1;whiteSpace=wrap;html=1;fillColor=#CCCCCC;" parent="cFaB45KztUIKXS-_cTrr-14" vertex="1">
          <mxGeometry x="1001" y="650" width="120" height="48" as="geometry" />
        </mxCell>
        <mxCell id="bkQitDRXs5g6DSLi2g_j-45" value="&lt;font style=&quot;font-size: 30px;&quot;&gt;*税額控除&lt;/font&gt;" style="rounded=0;whiteSpace=wrap;html=1;align=right;dashed=1;dashPattern=8 8;verticalAlign=bottom;" parent="cFaB45KztUIKXS-_cTrr-14" vertex="1">
          <mxGeometry x="71" y="1098" width="230" height="46" as="geometry" />
        </mxCell>
        <mxCell id="bkQitDRXs5g6DSLi2g_j-47" value="&lt;font style=&quot;font-size: 30px;&quot;&gt;☑必要&lt;/font&gt;" style="text;html=1;strokeColor=none;fillColor=none;align=left;verticalAlign=middle;whiteSpace=wrap;rounded=0;" parent="cFaB45KztUIKXS-_cTrr-14" vertex="1">
          <mxGeometry x="368" y="1113" width="180" height="30" as="geometry" />
        </mxCell>
        <mxCell id="bkQitDRXs5g6DSLi2g_j-117" value="&lt;span style=&quot;font-size: 36px;&quot;&gt;項目詳細入力&lt;/span&gt;" style="rounded=0;whiteSpace=wrap;html=1;align=left;dashed=1;dashPattern=8 8;" parent="cFaB45KztUIKXS-_cTrr-14" vertex="1">
          <mxGeometry x="26" y="64" width="230" height="70" as="geometry" />
        </mxCell>
        <mxCell id="bkQitDRXs5g6DSLi2g_j-118" value="&lt;font style=&quot;font-size: 30px;&quot;&gt;保存&lt;/font&gt;" style="rounded=1;whiteSpace=wrap;html=1;" parent="cFaB45KztUIKXS-_cTrr-14" vertex="1">
          <mxGeometry x="1420" y="1405" width="120" height="48" as="geometry" />
        </mxCell>
        <mxCell id="bkQitDRXs5g6DSLi2g_j-121" value="" style="rounded=0;whiteSpace=wrap;html=1;fillColor=#B3B3B3;fontColor=#333333;strokeColor=#666666;" parent="cFaB45KztUIKXS-_cTrr-14" vertex="1">
          <mxGeometry y="10" width="1595" height="60" as="geometry" />
        </mxCell>
        <mxCell id="bkQitDRXs5g6DSLi2g_j-122" value="&lt;font style=&quot;font-size: 48px;&quot;&gt;×&lt;/font&gt;" style="rounded=0;whiteSpace=wrap;html=1;" parent="cFaB45KztUIKXS-_cTrr-14" vertex="1">
          <mxGeometry x="1550" y="20" width="40" height="40" as="geometry" />
        </mxCell>
        <mxCell id="_eCC-YQtC-nGNel2I9ut-0" value="&lt;span style=&quot;font-size: 30px;&quot;&gt;報告除外で処理されていますが、××という条文上の理由で報告するのが適当と思われます。&lt;/span&gt;" style="rounded=0;whiteSpace=wrap;html=1;align=left;verticalAlign=top;fillColor=#FFFFFF;" parent="cFaB45KztUIKXS-_cTrr-14" vertex="1">
          <mxGeometry x="352" y="1178" width="498" height="144" as="geometry" />
        </mxCell>
        <mxCell id="_eCC-YQtC-nGNel2I9ut-1" value="&lt;span style=&quot;font-size: 30px;&quot;&gt;意見付記履歴&lt;/span&gt;" style="rounded=1;whiteSpace=wrap;html=1;" parent="cFaB45KztUIKXS-_cTrr-14" vertex="1">
          <mxGeometry x="866" y="1183" width="264" height="48" as="geometry" />
        </mxCell>
        <mxCell id="iyJBz5RghbY5vBhRCDR4-0" value="&lt;span style=&quot;font-size: 30px;&quot;&gt;××信用金庫&lt;/span&gt;" style="rounded=0;whiteSpace=wrap;html=1;align=left;fillColor=#CCCCCC;" parent="cFaB45KztUIKXS-_cTrr-14" vertex="1">
          <mxGeometry x="657" y="310" width="493" height="48" as="geometry" />
        </mxCell>
        <mxCell id="aHx8czQyFe49zxoXzksR-0" value="&lt;font style=&quot;font-size: 84px;&quot;&gt;○&lt;/font&gt;" style="text;html=1;strokeColor=none;fillColor=none;align=center;verticalAlign=middle;whiteSpace=wrap;rounded=0;fontSize=60;" parent="cFaB45KztUIKXS-_cTrr-14" vertex="1">
          <mxGeometry x="953" y="377" width="60" height="30" as="geometry" />
        </mxCell>
        <mxCell id="aHx8czQyFe49zxoXzksR-1" value="&lt;font style=&quot;font-size: 30px;&quot;&gt;政治活動報告対象外(廃止予定)&lt;/font&gt;" style="text;html=1;strokeColor=none;fillColor=none;align=left;verticalAlign=middle;whiteSpace=wrap;rounded=0;" parent="cFaB45KztUIKXS-_cTrr-14" vertex="1">
          <mxGeometry x="1009" y="367" width="511" height="60" as="geometry" />
        </mxCell>
        <mxCell id="aHx8czQyFe49zxoXzksR-2" value="&lt;font style=&quot;font-size: 30px;&quot;&gt;*意見付記&lt;/font&gt;" style="rounded=0;whiteSpace=wrap;html=1;align=right;dashed=1;dashPattern=8 8;verticalAlign=bottom;" parent="cFaB45KztUIKXS-_cTrr-14" vertex="1">
          <mxGeometry x="71" y="1178" width="230" height="46" as="geometry" />
        </mxCell>
        <mxCell id="aHx8czQyFe49zxoXzksR-4" value="&lt;font style=&quot;font-size: 30px;&quot;&gt;キャンセル&lt;/font&gt;" style="rounded=1;whiteSpace=wrap;html=1;" parent="cFaB45KztUIKXS-_cTrr-14" vertex="1">
          <mxGeometry x="1170" y="1405" width="200" height="48" as="geometry" />
        </mxCell>
        <mxCell id="GrZ_Pg3M6HAm1sigon2y-0" value="&lt;font style=&quot;font-size: 30px;&quot;&gt;*処理区分&lt;/font&gt;" style="rounded=0;whiteSpace=wrap;html=1;align=right;dashed=1;dashPattern=8 8;verticalAlign=bottom;" parent="cFaB45KztUIKXS-_cTrr-14" vertex="1">
          <mxGeometry x="55" y="1340" width="230" height="46" as="geometry" />
        </mxCell>
        <mxCell id="GrZ_Pg3M6HAm1sigon2y-1" value="&lt;font style=&quot;font-size: 30px;&quot;&gt;☑前例と異なる処理&lt;/font&gt;" style="text;html=1;strokeColor=none;fillColor=none;align=left;verticalAlign=middle;whiteSpace=wrap;rounded=0;" parent="cFaB45KztUIKXS-_cTrr-14" vertex="1">
          <mxGeometry x="352" y="1353" width="408" height="30" as="geometry" />
        </mxCell>
        <mxCell id="GrZ_Pg3M6HAm1sigon2y-2" value="&lt;span style=&quot;font-size: 30px;&quot;&gt;指示内容保全&lt;/span&gt;" style="rounded=1;whiteSpace=wrap;html=1;" parent="cFaB45KztUIKXS-_cTrr-14" vertex="1">
          <mxGeometry x="696" y="1343" width="264" height="48" as="geometry" />
        </mxCell>
        <mxCell id="LOe4wirRwo3DXo5MhCyO-0" value="&lt;font style=&quot;font-size: 30px;&quot;&gt;入力済項目編集&lt;/font&gt;" style="rounded=0;whiteSpace=wrap;html=1;align=right;dashed=1;dashPattern=8 8;verticalAlign=bottom;" vertex="1" parent="cFaB45KztUIKXS-_cTrr-14">
          <mxGeometry x="71" y="240" width="230" height="46" as="geometry" />
        </mxCell>
        <mxCell id="LOe4wirRwo3DXo5MhCyO-1" value="&lt;font style=&quot;font-size: 30px;&quot;&gt;&lt;br&gt;☑入力済項目を編集する&lt;/font&gt;" style="rounded=0;whiteSpace=wrap;html=1;align=left;dashed=1;dashPattern=8 8;verticalAlign=bottom;" vertex="1" parent="cFaB45KztUIKXS-_cTrr-14">
          <mxGeometry x="380" y="240" width="690" height="46" as="geometry" />
        </mxCell>
        <mxCell id="bkQitDRXs5g6DSLi2g_j-86" value="振番" style="locked=1;" parent="0" visible="0" />
        <mxCell id="bkQitDRXs5g6DSLi2g_j-87" value="&lt;font size=&quot;1&quot; color=&quot;#cc0000&quot;&gt;&lt;b style=&quot;font-size: 36px;&quot;&gt;(1)&lt;/b&gt;&lt;/font&gt;" style="text;html=1;strokeColor=none;fillColor=none;align=center;verticalAlign=middle;whiteSpace=wrap;rounded=0;" parent="bkQitDRXs5g6DSLi2g_j-86" vertex="1">
          <mxGeometry x="86" y="260" width="60" height="30" as="geometry" />
        </mxCell>
        <mxCell id="bkQitDRXs5g6DSLi2g_j-88" value="&lt;font size=&quot;1&quot; color=&quot;#cc0000&quot;&gt;&lt;b style=&quot;font-size: 36px;&quot;&gt;(2)&lt;/b&gt;&lt;/font&gt;" style="text;html=1;strokeColor=none;fillColor=none;align=center;verticalAlign=middle;whiteSpace=wrap;rounded=0;" parent="bkQitDRXs5g6DSLi2g_j-86" vertex="1">
          <mxGeometry x="314" y="260" width="60" height="30" as="geometry" />
        </mxCell>
        <mxCell id="bkQitDRXs5g6DSLi2g_j-89" value="&lt;font size=&quot;1&quot; color=&quot;#cc0000&quot;&gt;&lt;b style=&quot;font-size: 36px;&quot;&gt;(3)&lt;/b&gt;&lt;/font&gt;" style="text;html=1;strokeColor=none;fillColor=none;align=center;verticalAlign=middle;whiteSpace=wrap;rounded=0;" parent="bkQitDRXs5g6DSLi2g_j-86" vertex="1">
          <mxGeometry x="76" y="330" width="60" height="30" as="geometry" />
        </mxCell>
        <mxCell id="bkQitDRXs5g6DSLi2g_j-90" value="&lt;font size=&quot;1&quot; color=&quot;#cc0000&quot;&gt;&lt;b style=&quot;font-size: 36px;&quot;&gt;(4)&lt;/b&gt;&lt;/font&gt;" style="text;html=1;strokeColor=none;fillColor=none;align=center;verticalAlign=middle;whiteSpace=wrap;rounded=0;" parent="bkQitDRXs5g6DSLi2g_j-86" vertex="1">
          <mxGeometry x="306" y="330" width="60" height="30" as="geometry" />
        </mxCell>
        <mxCell id="bkQitDRXs5g6DSLi2g_j-91" value="&lt;font size=&quot;1&quot; color=&quot;#cc0000&quot;&gt;&lt;b style=&quot;font-size: 36px;&quot;&gt;(5)&lt;/b&gt;&lt;/font&gt;" style="text;html=1;strokeColor=none;fillColor=none;align=center;verticalAlign=middle;whiteSpace=wrap;rounded=0;" parent="bkQitDRXs5g6DSLi2g_j-86" vertex="1">
          <mxGeometry x="76" y="400" width="60" height="30" as="geometry" />
        </mxCell>
        <mxCell id="bkQitDRXs5g6DSLi2g_j-92" value="&lt;font size=&quot;1&quot; color=&quot;#cc0000&quot;&gt;&lt;b style=&quot;font-size: 36px;&quot;&gt;(6)&lt;/b&gt;&lt;/font&gt;" style="text;html=1;strokeColor=none;fillColor=none;align=center;verticalAlign=middle;whiteSpace=wrap;rounded=0;" parent="bkQitDRXs5g6DSLi2g_j-86" vertex="1">
          <mxGeometry x="306" y="390" width="60" height="30" as="geometry" />
        </mxCell>
        <mxCell id="bkQitDRXs5g6DSLi2g_j-93" value="&lt;font size=&quot;1&quot; color=&quot;#cc0000&quot;&gt;&lt;b style=&quot;font-size: 36px;&quot;&gt;(7)&lt;/b&gt;&lt;/font&gt;" style="text;html=1;strokeColor=none;fillColor=none;align=center;verticalAlign=middle;whiteSpace=wrap;rounded=0;" parent="bkQitDRXs5g6DSLi2g_j-86" vertex="1">
          <mxGeometry x="716" y="380" width="60" height="30" as="geometry" />
        </mxCell>
        <mxCell id="bkQitDRXs5g6DSLi2g_j-94" value="&lt;font size=&quot;1&quot; color=&quot;#cc0000&quot;&gt;&lt;b style=&quot;font-size: 36px;&quot;&gt;(8)&lt;/b&gt;&lt;/font&gt;" style="text;html=1;strokeColor=none;fillColor=none;align=center;verticalAlign=middle;whiteSpace=wrap;rounded=0;" parent="bkQitDRXs5g6DSLi2g_j-86" vertex="1">
          <mxGeometry x="76" y="470" width="60" height="30" as="geometry" />
        </mxCell>
        <mxCell id="bkQitDRXs5g6DSLi2g_j-95" value="&lt;font size=&quot;1&quot; color=&quot;#cc0000&quot;&gt;&lt;b style=&quot;font-size: 36px;&quot;&gt;(9)&lt;/b&gt;&lt;/font&gt;" style="text;html=1;strokeColor=none;fillColor=none;align=center;verticalAlign=middle;whiteSpace=wrap;rounded=0;" parent="bkQitDRXs5g6DSLi2g_j-86" vertex="1">
          <mxGeometry x="306" y="470" width="60" height="30" as="geometry" />
        </mxCell>
        <mxCell id="bkQitDRXs5g6DSLi2g_j-96" value="&lt;font size=&quot;1&quot; color=&quot;#cc0000&quot;&gt;&lt;b style=&quot;font-size: 36px;&quot;&gt;(10)&lt;/b&gt;&lt;/font&gt;" style="text;html=1;strokeColor=none;fillColor=none;align=center;verticalAlign=middle;whiteSpace=wrap;rounded=0;" parent="bkQitDRXs5g6DSLi2g_j-86" vertex="1">
          <mxGeometry x="76" y="540" width="60" height="30" as="geometry" />
        </mxCell>
        <mxCell id="bkQitDRXs5g6DSLi2g_j-97" value="&lt;font size=&quot;1&quot; color=&quot;#cc0000&quot;&gt;&lt;b style=&quot;font-size: 36px;&quot;&gt;(11)&lt;/b&gt;&lt;/font&gt;" style="text;html=1;strokeColor=none;fillColor=none;align=center;verticalAlign=middle;whiteSpace=wrap;rounded=0;" parent="bkQitDRXs5g6DSLi2g_j-86" vertex="1">
          <mxGeometry x="306" y="540" width="60" height="30" as="geometry" />
        </mxCell>
        <mxCell id="bkQitDRXs5g6DSLi2g_j-98" value="&lt;font size=&quot;1&quot; color=&quot;#cc0000&quot;&gt;&lt;b style=&quot;font-size: 36px;&quot;&gt;(12)&lt;/b&gt;&lt;/font&gt;" style="text;html=1;strokeColor=none;fillColor=none;align=center;verticalAlign=middle;whiteSpace=wrap;rounded=0;" parent="bkQitDRXs5g6DSLi2g_j-86" vertex="1">
          <mxGeometry x="75" y="610" width="60" height="30" as="geometry" />
        </mxCell>
        <mxCell id="bkQitDRXs5g6DSLi2g_j-99" value="&lt;font size=&quot;1&quot; color=&quot;#cc0000&quot;&gt;&lt;b style=&quot;font-size: 36px;&quot;&gt;(13)&lt;/b&gt;&lt;/font&gt;" style="text;html=1;strokeColor=none;fillColor=none;align=center;verticalAlign=middle;whiteSpace=wrap;rounded=0;" parent="bkQitDRXs5g6DSLi2g_j-86" vertex="1">
          <mxGeometry x="306" y="603" width="60" height="30" as="geometry" />
        </mxCell>
        <mxCell id="bkQitDRXs5g6DSLi2g_j-100" value="&lt;font size=&quot;1&quot; color=&quot;#cc0000&quot;&gt;&lt;b style=&quot;font-size: 36px;&quot;&gt;(14)&lt;/b&gt;&lt;/font&gt;" style="text;html=1;strokeColor=none;fillColor=none;align=center;verticalAlign=middle;whiteSpace=wrap;rounded=0;" parent="bkQitDRXs5g6DSLi2g_j-86" vertex="1">
          <mxGeometry x="716" y="580" width="60" height="30" as="geometry" />
        </mxCell>
        <mxCell id="bkQitDRXs5g6DSLi2g_j-101" value="&lt;font size=&quot;1&quot; color=&quot;#cc0000&quot;&gt;&lt;b style=&quot;font-size: 36px;&quot;&gt;(15)&lt;/b&gt;&lt;/font&gt;" style="text;html=1;strokeColor=none;fillColor=none;align=center;verticalAlign=middle;whiteSpace=wrap;rounded=0;" parent="bkQitDRXs5g6DSLi2g_j-86" vertex="1">
          <mxGeometry x="46" y="680" width="60" height="30" as="geometry" />
        </mxCell>
        <mxCell id="bkQitDRXs5g6DSLi2g_j-102" value="&lt;font size=&quot;1&quot; color=&quot;#cc0000&quot;&gt;&lt;b style=&quot;font-size: 36px;&quot;&gt;(16)&lt;/b&gt;&lt;/font&gt;" style="text;html=1;strokeColor=none;fillColor=none;align=center;verticalAlign=middle;whiteSpace=wrap;rounded=0;" parent="bkQitDRXs5g6DSLi2g_j-86" vertex="1">
          <mxGeometry x="308" y="682" width="60" height="30" as="geometry" />
        </mxCell>
        <mxCell id="bkQitDRXs5g6DSLi2g_j-103" value="&lt;font size=&quot;1&quot; color=&quot;#cc0000&quot;&gt;&lt;b style=&quot;font-size: 36px;&quot;&gt;(17)&lt;/b&gt;&lt;/font&gt;" style="text;html=1;strokeColor=none;fillColor=none;align=center;verticalAlign=middle;whiteSpace=wrap;rounded=0;" parent="bkQitDRXs5g6DSLi2g_j-86" vertex="1">
          <mxGeometry x="66" y="760" width="60" height="30" as="geometry" />
        </mxCell>
        <mxCell id="bkQitDRXs5g6DSLi2g_j-104" value="&lt;font size=&quot;1&quot; color=&quot;#cc0000&quot;&gt;&lt;b style=&quot;font-size: 36px;&quot;&gt;(18)&lt;/b&gt;&lt;/font&gt;" style="text;html=1;strokeColor=none;fillColor=none;align=center;verticalAlign=middle;whiteSpace=wrap;rounded=0;" parent="bkQitDRXs5g6DSLi2g_j-86" vertex="1">
          <mxGeometry x="306" y="760" width="60" height="30" as="geometry" />
        </mxCell>
        <mxCell id="bkQitDRXs5g6DSLi2g_j-105" value="&lt;font size=&quot;1&quot; color=&quot;#cc0000&quot;&gt;&lt;b style=&quot;font-size: 36px;&quot;&gt;(19)&lt;/b&gt;&lt;/font&gt;" style="text;html=1;strokeColor=none;fillColor=none;align=center;verticalAlign=middle;whiteSpace=wrap;rounded=0;" parent="bkQitDRXs5g6DSLi2g_j-86" vertex="1">
          <mxGeometry x="56" y="830" width="60" height="30" as="geometry" />
        </mxCell>
        <mxCell id="bkQitDRXs5g6DSLi2g_j-106" value="&lt;font size=&quot;1&quot; color=&quot;#cc0000&quot;&gt;&lt;b style=&quot;font-size: 36px;&quot;&gt;(20)&lt;/b&gt;&lt;/font&gt;" style="text;html=1;strokeColor=none;fillColor=none;align=center;verticalAlign=middle;whiteSpace=wrap;rounded=0;" parent="bkQitDRXs5g6DSLi2g_j-86" vertex="1">
          <mxGeometry x="296" y="830" width="60" height="30" as="geometry" />
        </mxCell>
        <mxCell id="bkQitDRXs5g6DSLi2g_j-107" value="&lt;font size=&quot;1&quot; color=&quot;#cc0000&quot;&gt;&lt;b style=&quot;font-size: 36px;&quot;&gt;(21)&lt;/b&gt;&lt;/font&gt;" style="text;html=1;strokeColor=none;fillColor=none;align=center;verticalAlign=middle;whiteSpace=wrap;rounded=0;" parent="bkQitDRXs5g6DSLi2g_j-86" vertex="1">
          <mxGeometry x="56" y="990" width="60" height="30" as="geometry" />
        </mxCell>
        <mxCell id="bkQitDRXs5g6DSLi2g_j-108" value="&lt;font size=&quot;1&quot; color=&quot;#cc0000&quot;&gt;&lt;b style=&quot;font-size: 36px;&quot;&gt;(22)&lt;/b&gt;&lt;/font&gt;" style="text;html=1;strokeColor=none;fillColor=none;align=center;verticalAlign=middle;whiteSpace=wrap;rounded=0;" parent="bkQitDRXs5g6DSLi2g_j-86" vertex="1">
          <mxGeometry x="306" y="990" width="60" height="30" as="geometry" />
        </mxCell>
        <mxCell id="bkQitDRXs5g6DSLi2g_j-109" value="&lt;font size=&quot;1&quot; color=&quot;#cc0000&quot;&gt;&lt;b style=&quot;font-size: 36px;&quot;&gt;(23)&lt;/b&gt;&lt;/font&gt;" style="text;html=1;strokeColor=none;fillColor=none;align=center;verticalAlign=middle;whiteSpace=wrap;rounded=0;" parent="bkQitDRXs5g6DSLi2g_j-86" vertex="1">
          <mxGeometry x="716" y="960" width="60" height="30" as="geometry" />
        </mxCell>
        <mxCell id="bkQitDRXs5g6DSLi2g_j-110" value="&lt;font size=&quot;1&quot; color=&quot;#cc0000&quot;&gt;&lt;b style=&quot;font-size: 36px;&quot;&gt;(24)&lt;/b&gt;&lt;/font&gt;" style="text;html=1;strokeColor=none;fillColor=none;align=center;verticalAlign=middle;whiteSpace=wrap;rounded=0;" parent="bkQitDRXs5g6DSLi2g_j-86" vertex="1">
          <mxGeometry x="56" y="1060" width="60" height="30" as="geometry" />
        </mxCell>
        <mxCell id="bkQitDRXs5g6DSLi2g_j-111" value="&lt;font size=&quot;1&quot; color=&quot;#cc0000&quot;&gt;&lt;b style=&quot;font-size: 36px;&quot;&gt;(25)&lt;/b&gt;&lt;/font&gt;" style="text;html=1;strokeColor=none;fillColor=none;align=center;verticalAlign=middle;whiteSpace=wrap;rounded=0;" parent="bkQitDRXs5g6DSLi2g_j-86" vertex="1">
          <mxGeometry x="310" y="1060" width="60" height="30" as="geometry" />
        </mxCell>
        <mxCell id="bkQitDRXs5g6DSLi2g_j-114" style="edgeStyle=orthogonalEdgeStyle;rounded=0;orthogonalLoop=1;jettySize=auto;html=1;exitX=0.5;exitY=1;exitDx=0;exitDy=0;entryX=0.507;entryY=0.667;entryDx=0;entryDy=0;entryPerimeter=0;" parent="bkQitDRXs5g6DSLi2g_j-86" source="bkQitDRXs5g6DSLi2g_j-90" target="bkQitDRXs5g6DSLi2g_j-90" edge="1">
          <mxGeometry relative="1" as="geometry" />
        </mxCell>
        <mxCell id="bkQitDRXs5g6DSLi2g_j-116" style="edgeStyle=orthogonalEdgeStyle;rounded=0;orthogonalLoop=1;jettySize=auto;html=1;exitX=0.75;exitY=0;exitDx=0;exitDy=0;entryX=0.5;entryY=0;entryDx=0;entryDy=0;" parent="bkQitDRXs5g6DSLi2g_j-86" source="bkQitDRXs5g6DSLi2g_j-97" target="bkQitDRXs5g6DSLi2g_j-97" edge="1">
          <mxGeometry relative="1" as="geometry" />
        </mxCell>
        <mxCell id="iyJBz5RghbY5vBhRCDR4-2" value="&lt;font size=&quot;1&quot; color=&quot;#cc0000&quot;&gt;&lt;b style=&quot;font-size: 36px;&quot;&gt;(26)&lt;/b&gt;&lt;/font&gt;" style="text;html=1;strokeColor=none;fillColor=none;align=center;verticalAlign=middle;whiteSpace=wrap;rounded=0;" parent="bkQitDRXs5g6DSLi2g_j-86" vertex="1">
          <mxGeometry x="476" y="1110" width="60" height="30" as="geometry" />
        </mxCell>
        <mxCell id="iyJBz5RghbY5vBhRCDR4-3" value="&lt;font size=&quot;1&quot; color=&quot;#cc0000&quot;&gt;&lt;b style=&quot;font-size: 36px;&quot;&gt;(27)&lt;/b&gt;&lt;/font&gt;" style="text;html=1;strokeColor=none;fillColor=none;align=center;verticalAlign=middle;whiteSpace=wrap;rounded=0;" parent="bkQitDRXs5g6DSLi2g_j-86" vertex="1">
          <mxGeometry x="907" y="900" width="60" height="30" as="geometry" />
        </mxCell>
        <mxCell id="iyJBz5RghbY5vBhRCDR4-4" value="&lt;font size=&quot;1&quot; color=&quot;#cc0000&quot;&gt;&lt;b style=&quot;font-size: 36px;&quot;&gt;(28)&lt;/b&gt;&lt;/font&gt;" style="text;html=1;strokeColor=none;fillColor=none;align=center;verticalAlign=middle;whiteSpace=wrap;rounded=0;" parent="bkQitDRXs5g6DSLi2g_j-86" vertex="1">
          <mxGeometry x="907" y="960" width="60" height="30" as="geometry" />
        </mxCell>
        <mxCell id="iyJBz5RghbY5vBhRCDR4-5" value="&lt;font size=&quot;1&quot; color=&quot;#cc0000&quot;&gt;&lt;b style=&quot;font-size: 36px;&quot;&gt;(29)&lt;/b&gt;&lt;/font&gt;" style="text;html=1;strokeColor=none;fillColor=none;align=center;verticalAlign=middle;whiteSpace=wrap;rounded=0;" parent="bkQitDRXs5g6DSLi2g_j-86" vertex="1">
          <mxGeometry x="1497" y="1020" width="60" height="30" as="geometry" />
        </mxCell>
        <mxCell id="iyJBz5RghbY5vBhRCDR4-6" value="&lt;font size=&quot;1&quot; color=&quot;#cc0000&quot;&gt;&lt;b style=&quot;font-size: 36px;&quot;&gt;(30)&lt;/b&gt;&lt;/font&gt;" style="text;html=1;strokeColor=none;fillColor=none;align=center;verticalAlign=middle;whiteSpace=wrap;rounded=0;" parent="bkQitDRXs5g6DSLi2g_j-86" vertex="1">
          <mxGeometry x="1367" y="440" width="60" height="30" as="geometry" />
        </mxCell>
      </root>
    </mxGraphModel>
  </diagram>
</mxfile>
